<svg version="1.1" id="Layer_1" xmlns="http://www.w3.org/2000/svg" xmlns:xlink="http://www.w3.org/1999/xlink" x="0px" y="0px"
	 width="100%" viewBox="0 0 1024 800" enable-background="new 0 0 1024 800" xml:space="preserve">
<path fill="#000000" opacity="1.000000" stroke="none" 
	d="
M420.998901,160.667618 
	C425.665131,160.668594 429.842590,160.857880 433.995178,160.617218 
	C438.004852,160.384842 439.193909,162.137711 439.176147,165.923172 
	C439.106537,180.755219 439.175690,195.589035 439.344574,210.420502 
	C439.406647,215.873062 439.888062,221.320847 440.171814,226.650146 
	C443.086060,227.797867 445.182373,226.470215 447.347778,225.863159 
	C481.547516,216.275543 515.726562,215.770172 549.701355,226.680771 
	C561.408691,230.440445 571.732971,236.918320 580.406189,245.769531 
	C582.026855,247.423431 583.603455,247.829010 585.761841,247.047775 
	C610.845947,237.968521 637.015137,238.467072 662.878601,240.173355 
	C686.536621,241.734146 709.164429,248.104462 727.239563,265.268677 
	C741.065063,278.397430 746.745911,295.106689 749.213379,313.330505 
	C749.681396,316.787079 749.946960,320.306335 749.888062,323.789642 
	C749.821411,327.729584 751.396484,329.167847 755.296814,328.749908 
	C770.337463,327.138214 784.716492,330.618958 799.104797,334.376709 
	C803.707764,335.578888 804.931763,337.583435 803.907654,342.142273 
	C801.884033,351.150146 802.083923,351.175446 810.953918,354.442078 
	C829.675720,361.336914 844.236389,372.786438 850.808167,392.304077 
	C855.168396,405.253387 856.107605,418.706940 854.643921,432.288452 
	C853.845154,439.700195 853.903809,439.602570 861.045837,440.912659 
	C873.148132,443.132660 885.192871,445.666534 897.260742,448.073792 
	C897.585876,448.138672 897.893616,448.288635 898.218079,448.359772 
	C908.029236,450.510132 908.072266,450.517761 906.179016,460.250671 
	C903.903687,471.948090 903.473267,483.744415 904.443848,495.576996 
	C904.691528,498.596680 903.966125,500.181366 901.063538,501.190704 
	C891.941223,504.362854 882.868408,507.681183 873.818237,511.055115 
	C870.686096,512.222778 869.232483,511.441986 868.722107,508.049957 
	C867.255615,498.302887 866.420532,488.516907 866.863098,478.673065 
	C867.031372,474.930359 865.587219,473.408478 862.009888,472.604248 
	C848.504761,469.568237 848.623901,469.487152 845.047791,482.596771 
	C840.927063,497.702850 836.270996,512.641846 830.953003,527.382019 
	C829.518738,531.357300 827.642212,532.324341 823.553345,531.467590 
	C808.074463,528.224304 792.497620,525.449158 777.013672,522.228577 
	C772.521851,521.294250 770.449646,522.081543 769.681946,527.045715 
	C768.347290,535.676697 768.041565,535.568726 759.252747,533.858826 
	C738.333740,529.788940 717.391418,525.837219 696.488525,521.686401 
	C693.287170,521.050659 691.541077,521.964966 690.100525,524.776550 
	C683.418945,537.817810 676.447693,550.713013 669.922241,563.830750 
	C667.407288,568.886414 663.994141,572.146240 658.396912,573.024719 
	C621.461914,578.821655 584.499329,582.745300 547.051697,577.658020 
	C535.690125,576.114563 524.263000,574.933411 512.884521,573.379883 
	C504.975525,572.300049 500.760834,567.827393 498.736420,560.597168 
	C496.830292,553.789490 496.535950,546.827820 496.638306,539.806091 
	C496.667908,537.774841 497.422089,535.438110 494.960358,533.437317 
	C488.373810,537.325073 484.447266,544.622314 477.591003,548.465881 
	C476.358093,546.179504 477.539795,544.472473 478.071808,542.858337 
	C484.026428,524.791199 487.990997,506.279266 490.728333,487.481354 
	C491.162567,484.499390 491.612061,481.490509 495.917389,480.872253 
	C492.679688,480.420227 492.309723,478.558685 492.723053,476.165924 
	C493.799286,469.935333 494.828979,463.696655 495.867493,457.459564 
	C496.324524,454.714539 497.852844,453.590179 500.699463,453.592712 
	C509.343933,453.600403 517.988892,453.422516 526.632935,453.277222 
	C529.303894,453.232330 530.537476,454.665436 531.013367,457.107239 
	C534.834167,476.709900 538.634460,496.316681 542.539917,515.902466 
	C543.178101,519.103149 541.936340,520.229553 538.958862,520.214844 
	C533.959106,520.190186 528.947388,519.989746 523.962830,520.264526 
	C519.479065,520.511658 517.925598,518.394531 518.116943,514.326965 
	C518.241943,511.669952 518.955261,508.607697 514.851440,508.440002 
	C510.733643,508.271729 510.309601,511.567139 510.457092,514.320679 
	C510.761169,519.998535 506.429657,522.460144 503.167877,525.530029 
	C499.924072,528.583008 500.067078,530.586243 503.959900,532.639160 
	C518.968445,540.553833 534.883728,545.718628 551.558594,548.722839 
	C568.898438,551.846924 586.385681,552.034058 603.820129,550.615906 
	C620.460632,549.262329 636.692017,545.576538 652.143860,538.898132 
	C654.863464,537.722717 655.692139,535.737854 656.387451,533.255127 
	C662.682434,510.779053 666.869019,487.868378 670.568115,464.856201 
	C674.053772,443.171143 677.048157,421.436981 678.954468,399.533478 
	C681.063232,375.304260 683.039062,351.086945 682.611206,326.749481 
	C682.467834,318.598846 681.690979,310.499359 679.345032,302.572784 
	C675.041443,288.031464 665.909668,279.146301 650.656006,276.989197 
	C641.001404,275.623901 631.419128,275.581848 621.950623,278.309753 
	C611.550659,281.305969 605.425842,288.297211 602.473633,298.539917 
	C599.076172,310.327484 599.701172,322.355438 600.459412,334.292542 
	C601.746643,354.558716 603.420471,374.824188 606.314087,394.926361 
	C608.332458,408.948730 608.558594,423.142883 610.994873,437.096344 
	C611.510315,440.048553 610.424255,441.666992 607.512146,441.859375 
	C596.537903,442.584564 585.557190,442.599518 574.583008,441.842865 
	C571.582092,441.635956 569.920410,439.970367 569.063049,437.016022 
	C560.060120,405.995422 550.853882,375.033417 541.959534,343.981964 
	C537.983032,330.099396 536.847717,315.845551 537.756104,301.412262 
	C538.476135,289.972260 534.554199,279.754913 528.565247,270.318329 
	C523.860657,262.905396 516.743347,258.825439 508.191162,257.065460 
	C500.911926,255.567429 493.547394,255.546539 486.293640,256.506317 
	C471.149994,258.510071 463.416382,268.307404 462.240112,285.501984 
	C461.111450,302.000763 464.117340,317.973389 467.365021,334.006439 
	C471.809296,355.946899 478.100159,377.271271 486.919342,397.853546 
	C487.687134,399.645386 488.827881,401.399475 488.678345,403.521729 
	C487.150299,405.312927 485.062897,405.019897 483.105347,404.982758 
	C471.278748,404.758453 459.453827,404.422394 447.626465,404.274506 
	C444.817139,404.239380 443.003571,403.014496 441.306763,400.964630 
	C427.455719,384.231354 417.550537,365.204285 409.253662,345.309479 
	C403.284668,330.996582 398.376221,316.374695 397.265228,300.653015 
	C396.742249,293.252472 397.189026,285.982605 398.195892,278.752502 
	C398.799652,274.416840 397.095245,273.364319 393.416443,273.394867 
	C388.916962,273.432220 384.414429,273.301086 379.917816,273.419373 
	C376.566986,273.507446 375.287323,271.956390 374.823547,268.728149 
	C369.909393,234.520584 368.317719,200.127609 368.615936,165.604980 
	C368.651642,161.470306 370.332245,160.584656 374.002655,160.614838 
	C389.500610,160.742203 405.000244,160.668213 420.998901,160.667618 
M805.659790,487.211609 
	C807.522583,480.150146 809.599915,473.137024 811.204102,466.017303 
	C814.709961,450.456726 818.483826,434.926300 817.904114,418.762390 
	C817.613098,410.647430 816.329468,402.817535 811.755798,395.953979 
	C808.122437,390.501556 803.301514,386.460876 796.563049,384.605652 
	C796.002014,386.337067 795.521729,387.398956 795.317078,388.511566 
	C789.392395,420.718689 783.534973,452.938293 777.537842,485.131897 
	C776.871521,488.708832 778.326660,489.977600 781.464172,490.512207 
	C786.379333,491.349731 791.286194,492.247772 796.174011,493.232025 
	C803.049133,494.616394 803.154297,494.595612 805.659790,487.211609 
M753.854919,408.547089 
	C754.634399,404.465240 755.431458,400.386658 756.189880,396.300903 
	C758.009216,386.500000 759.898804,376.710571 761.544006,366.880341 
	C761.870911,364.926910 763.251892,361.827423 759.359131,361.504456 
	C753.146362,360.988983 745.544495,367.179626 744.355103,373.561127 
	C737.865173,408.381165 726.880676,441.813171 713.119995,474.375061 
	C711.600220,477.971161 711.031921,481.698120 710.387756,485.460663 
	C709.664062,489.688354 711.192749,491.966309 715.629700,492.629059 
	C721.212463,493.462952 726.802673,494.475769 732.245911,495.944183 
	C736.737793,497.155884 738.031311,495.338806 738.753479,491.321564 
	C743.664673,463.999084 748.732483,436.704773 753.854919,408.547089 
M387.161469,211.449631 
	C387.186432,213.115585 387.382355,214.800079 387.203918,216.443970 
	C386.690247,221.176331 388.551971,222.970108 393.418579,222.732468 
	C400.565735,222.383484 407.746613,222.510788 414.905670,222.706879 
	C418.639038,222.809113 419.921448,221.352524 419.796967,217.707336 
	C419.410461,206.390701 419.134033,195.068161 419.016541,183.745804 
	C418.978912,180.123718 417.296661,179.240234 414.058044,179.296188 
	C406.562805,179.425705 399.057098,179.515778 391.568542,179.253891 
	C387.157440,179.099625 386.208527,181.091446 386.395630,184.994186 
	C386.802307,193.476181 386.908905,201.972534 387.161469,211.449631 
M478.500183,247.830490 
	C494.469910,247.840530 510.440948,247.740356 526.408508,247.932632 
	C530.783142,247.985321 532.593445,246.451187 532.036865,242.115601 
	C531.889465,240.967438 531.857605,239.778214 531.971313,238.627472 
	C532.375183,234.538284 530.631531,233.120148 526.513733,233.150436 
	C505.221802,233.307083 483.927704,233.315521 462.635712,233.173248 
	C458.352875,233.144623 456.370056,234.516998 456.891541,238.918503 
	C457.047363,240.233551 457.031433,241.579849 456.976166,242.906921 
	C456.828308,246.459534 458.357025,248.032806 462.031433,247.896759 
	C467.181427,247.706085 472.343445,247.839539 478.500183,247.830490 
M749.393555,468.809631 
	C749.026428,470.941467 748.611511,473.066498 748.305359,475.207031 
	C747.976440,477.506195 748.817566,479.157501 751.227844,479.648987 
	C756.443237,480.712341 761.659424,481.777588 766.895752,482.729218 
	C769.330750,483.171753 771.149414,482.405579 771.649963,479.638275 
	C773.812012,467.684937 776.028442,455.741394 778.171326,443.784668 
	C778.695801,440.857880 777.484192,438.934723 774.470581,438.322266 
	C769.737976,437.360382 765.007080,436.389221 760.270447,435.447418 
	C756.970764,434.791351 755.543457,436.106689 754.969421,439.520081 
	C753.368896,449.038513 751.381897,458.491974 749.393555,468.809631 
M790.109375,347.400146 
	C784.711121,346.770294 779.506653,344.766907 773.494934,344.922180 
	C770.622009,358.128662 768.154663,371.308563 766.204041,384.587036 
	C765.850220,386.995880 767.158264,388.270569 769.503113,388.701355 
	C774.240784,389.571686 778.986511,390.418945 783.686951,391.464386 
	C787.064209,392.215546 788.491943,391.026611 789.076172,387.635559 
	C790.993713,376.506866 792.980103,365.382782 795.324036,354.338379 
	C796.219604,350.118256 795.245850,347.968597 790.109375,347.400146 
M718.461609,322.054260 
	C719.961609,322.056580 721.476257,321.924225 722.958801,322.086273 
	C727.561890,322.589417 729.087463,320.607635 728.923401,316.043854 
	C728.618408,307.554749 728.743896,299.046387 728.852966,290.548157 
	C728.893127,287.415863 727.766907,285.956635 724.535767,285.930054 
	C718.374573,285.879425 712.214600,285.650421 706.054871,285.469574 
	C703.200073,285.385803 701.795959,286.469666 701.887695,289.582520 
	C702.054504,295.244049 701.938049,300.914062 701.932190,306.580536 
	C701.916077,322.066895 701.914490,322.066895 718.461609,322.054260 
M843.593018,460.122284 
	C844.882690,452.920532 846.094604,445.703613 847.497192,438.523926 
	C848.126709,435.301819 847.328186,433.441895 843.865906,432.847778 
	C839.935486,432.173309 836.069946,431.127808 832.148560,430.390564 
	C829.842163,429.956909 827.872864,430.236084 827.352600,433.233948 
	C825.304688,445.033325 823.207947,456.824921 821.005310,468.596252 
	C820.456177,471.531281 821.483276,473.007660 824.294861,473.557800 
	C828.700195,474.419891 833.101868,475.303864 837.492004,476.239746 
	C839.692810,476.708893 840.469421,475.621857 840.833679,473.668427 
	C841.626038,469.419067 842.535767,465.191620 843.593018,460.122284 
M565.585876,310.231995 
	C556.219971,310.127899 556.196655,310.130310 557.133179,319.241302 
	C557.830994,326.030151 558.675537,332.804779 559.303711,339.599670 
	C559.616943,342.987579 561.035767,344.774353 564.639038,344.717896 
	C569.303101,344.644836 573.975342,344.687531 578.635254,344.886292 
	C582.473389,345.050018 584.186401,343.516937 583.902527,339.600861 
	C583.408936,332.792328 583.134705,325.967804 582.629944,319.160248 
	C582.065247,311.544861 580.821655,310.464569 573.045227,310.324310 
	C570.879028,310.285248 568.712463,310.268585 565.585876,310.231995 
M610.740479,269.758545 
	C628.037231,269.771698 645.335632,269.650452 662.629761,269.871216 
	C668.656677,269.948181 667.442200,265.994598 667.733276,262.455841 
	C668.050537,258.599792 666.712036,257.173676 662.683350,257.215332 
	C645.222046,257.395905 627.757751,257.334106 610.294983,257.258270 
	C607.034424,257.244110 604.552307,257.741638 604.968933,261.778076 
	C605.319702,265.176575 603.164795,270.159180 610.740479,269.758545 
M415.087738,318.364685 
	C415.475067,320.146149 416.724792,320.729156 418.386475,320.733002 
	C425.688599,320.749878 432.990784,320.754974 440.292847,320.786652 
	C442.860107,320.797791 443.801086,319.433380 443.753845,317.019409 
	C443.653137,311.875916 443.671814,306.729645 443.532654,301.587463 
	C443.437866,298.084290 441.897278,296.075500 437.998474,296.170288 
	C431.861420,296.319550 425.714417,296.314362 419.578094,296.143188 
	C415.912903,296.040894 414.338562,297.754089 414.405365,301.173553 
	C414.512146,306.637695 414.748291,312.099304 415.087738,318.364685 
M698.895752,511.162201 
	C698.063721,514.109436 697.625000,516.862366 701.746826,517.659058 
	C712.853577,519.805786 723.960815,521.950989 735.056152,524.155273 
	C737.155579,524.572388 738.300842,523.778992 738.623657,521.791992 
	C739.257019,517.894165 740.371643,514.042847 740.044983,509.422180 
	C728.774780,507.320496 717.485657,505.423004 706.304077,503.024292 
	C702.037537,502.109009 699.948364,503.051208 699.556213,507.409332 
	C699.466980,508.401459 699.245911,509.381683 698.895752,511.162201 
M713.088074,396.749756 
	C713.242432,394.597290 713.466919,392.447174 713.538147,390.291962 
	C713.758911,383.612061 712.548340,382.356598 706.005249,382.338654 
	C704.012085,382.333160 702.002502,382.509949 700.029236,382.313690 
	C695.786560,381.891724 693.898987,383.492706 694.131958,387.928162 
	C694.375549,392.565002 694.147705,397.226227 694.138123,401.876801 
	C694.116455,412.386780 694.119934,412.382111 704.311707,413.131897 
	C705.469849,413.217133 706.622437,413.383453 707.776001,413.524780 
	C711.075317,413.928894 712.830200,412.634033 712.834961,409.150452 
	C712.840149,405.331177 712.980103,401.512115 713.088074,396.749756 
M589.242004,389.211823 
	C588.334717,381.319824 588.333496,381.363098 580.419189,381.143219 
	C577.606201,381.065063 574.794556,380.777710 571.993225,380.482147 
	C568.694824,380.134155 566.770447,381.250244 567.146301,384.853699 
	C567.799744,391.118317 568.534851,397.374359 569.202881,403.637543 
	C569.447021,405.926392 570.842773,406.728699 572.937561,406.735596 
	C577.253540,406.749756 581.570679,406.706085 585.885071,406.796173 
	C588.889648,406.858887 590.101990,405.420624 589.954834,402.533508 
	C589.743652,398.390320 589.578674,394.244812 589.242004,389.211823 
M441.451599,373.745087 
	C441.674194,377.055756 441.963959,380.363708 442.097900,383.677948 
	C442.202728,386.271057 443.295990,387.739502 446.008392,387.736511 
	C451.484955,387.730469 456.961548,387.721558 462.438110,387.720825 
	C464.631439,387.720551 465.909637,386.745453 465.876343,384.447510 
	C465.804260,379.470001 465.754211,374.491180 465.588409,369.516449 
	C465.496826,366.767670 464.077972,365.280670 461.165436,365.316315 
	C457.183105,365.365051 453.199280,365.279541 449.216064,365.270233 
	C441.413849,365.252014 441.413849,365.257324 441.451599,373.745087 
M877.677795,487.347260 
	C880.930603,488.006226 884.199585,488.595367 887.431091,489.345947 
	C890.081116,489.961456 891.508667,489.191711 891.935730,486.363037 
	C892.530029,482.427002 893.313843,478.516785 894.109802,474.614532 
	C896.490356,462.944214 898.851685,464.025818 884.312988,461.427277 
	C881.437683,460.913330 879.916931,462.034760 879.423706,464.879822 
	C878.374939,470.930695 877.220154,476.963318 876.185364,483.016479 
	C875.946716,484.412415 875.293640,486.013336 877.677795,487.347260 
M691.884644,467.407867 
	C694.351013,467.398407 697.760803,470.254700 699.051392,467.075378 
	C700.550842,463.381348 701.477722,458.077057 698.847046,455.166260 
	C695.636536,451.613708 690.059204,453.002960 685.560791,453.629150 
	C682.251587,454.089783 683.175903,457.564026 683.050476,459.878021 
	C682.749695,465.424622 683.473267,465.992462 691.884644,467.407867 
M514.846985,482.665039 
	C514.504028,481.588440 513.673218,480.509674 513.248108,482.288757 
	C512.376709,485.935394 511.973175,489.703766 511.546600,493.441376 
	C511.392853,494.788635 512.386719,495.498169 513.742798,495.529572 
	C515.369263,495.567200 516.249512,494.783966 516.078491,493.130432 
	C515.741150,489.868042 515.329041,486.613403 514.846985,482.665039 
z"/>
<path fill="#000000" opacity="1.000000" stroke="none" 
	d="
M597.361572,498.861053 
	C596.250183,504.952393 595.187866,510.677643 594.207275,516.416870 
	C593.711792,519.316711 592.381714,520.653748 589.165588,520.542480 
	C582.344055,520.306396 575.508057,520.447449 568.678528,520.502747 
	C566.583252,520.519653 564.461975,520.612122 564.047302,517.925964 
	C562.549988,508.228210 561.120728,498.519714 559.736389,488.805237 
	C559.631104,488.066528 560.079285,487.248871 560.289062,486.390686 
	C565.748718,486.737549 571.061218,488.074463 576.254150,485.832764 
	C577.921875,485.112885 578.347046,488.047882 580.528076,487.220215 
	C583.330627,483.844574 583.003479,478.962616 584.981628,473.520050 
	C586.421875,478.438507 588.729553,480.717590 592.928711,479.779541 
	C595.323059,479.244659 594.947205,477.113098 595.606445,475.543854 
	C593.867615,473.880737 591.797607,473.137482 589.995483,473.196533 
	C584.324524,473.382385 584.472656,470.170349 584.902771,466.032654 
	C585.259399,462.601746 587.629944,459.678436 586.909668,455.960571 
	C586.592407,454.322388 588.225098,453.435333 589.947144,453.404968 
	C595.434570,453.308136 600.921753,453.180084 606.409607,453.133789 
	C610.183228,453.101959 612.125977,454.706451 612.236755,458.828552 
	C612.468018,467.435760 615.057190,475.884430 613.959290,484.626495 
	C613.786621,486.001648 614.994446,487.550201 615.973389,489.024811 
	C616.813599,478.701691 618.815491,468.620636 620.529663,458.489838 
	C621.106750,455.079315 622.267090,453.471954 625.906006,453.569885 
	C630.056396,453.681580 634.218811,453.260284 638.378113,453.149384 
	C643.805664,453.004669 644.837097,453.989197 644.057068,459.135040 
	C641.164917,478.213623 638.131470,497.270844 635.244507,516.350159 
	C634.773132,519.465393 633.231995,520.481140 630.192688,520.412720 
	C623.365540,520.258911 616.528625,520.234741 609.703430,520.430420 
	C606.443176,520.523926 604.782471,519.337891 604.176819,516.148071 
	C603.121765,510.591400 601.860718,505.074158 600.723755,499.532654 
	C600.460388,498.248657 600.301086,496.957581 599.253113,496.119507 
	C597.828979,496.487915 597.929199,497.697235 597.361572,498.861053 
M606.849548,486.262207 
	C603.406433,486.262207 599.963379,486.262207 595.093140,486.262207 
	C599.144592,487.938049 601.883240,489.084106 604.633362,490.202118 
	C605.787964,490.671509 606.941223,490.796844 607.726990,489.567047 
	C608.417725,488.486084 609.551758,487.291443 606.849548,486.262207 
z"/>
<path fill="#000000" opacity="1.000000" stroke="none" 
	d="
M390.279938,520.201233 
	C386.043274,520.472046 384.868073,518.400452 384.859772,514.989380 
	C384.855408,513.194824 385.295502,511.229034 384.203796,509.620453 
	C383.226593,508.180481 381.580353,508.228119 380.102356,508.608215 
	C377.927429,509.167572 377.313995,511.112244 377.445251,512.925293 
	C377.785522,517.625671 375.360779,520.762451 372.141693,523.632141 
	C363.582977,531.261841 354.937958,538.798767 346.887115,546.980225 
	C346.228607,547.649414 345.521820,548.521729 344.262787,548.166016 
	C343.000885,547.024414 343.754791,545.704590 344.165619,544.538635 
	C350.770111,525.794495 354.394928,506.363007 357.622528,486.831055 
	C359.225861,477.128448 361.074036,467.466217 362.663269,457.761444 
	C363.089050,455.161499 363.661926,453.465668 366.874512,453.487885 
	C375.680511,453.548828 384.488556,453.328735 393.295654,453.211853 
	C395.598175,453.181305 396.911591,454.035767 397.400726,456.536316 
	C401.264038,476.285614 405.232513,496.014374 409.200287,515.743103 
	C409.870697,519.076477 408.494934,520.329468 405.238556,520.255920 
	C400.410065,520.146851 395.577545,520.214233 390.279938,520.201233 
M380.562622,495.514893 
	C382.248871,495.360168 382.888184,494.276398 382.741791,492.766266 
	C382.399994,489.240601 381.950012,485.725403 381.440460,481.310120 
	C378.454742,486.641632 377.992889,492.503052 380.562622,495.514893 
z"/>
<path fill="#000000" opacity="1.000000" stroke="none" 
	d="
M475.573181,502.007751 
	C476.630432,514.503967 471.953705,519.983582 459.924164,520.225891 
	C448.778748,520.450439 437.625092,520.243652 426.477539,520.401062 
	C422.959290,520.450745 421.803925,518.951904 421.817200,515.626831 
	C421.892761,496.687683 421.825195,477.747925 421.901520,458.808777 
	C421.921875,453.759186 423.872650,452.767761 429.113159,454.177063 
	C435.158600,455.802826 440.518555,459.472961 447.035828,459.744751 
	C452.122131,459.956818 452.711121,459.569183 451.895111,454.537445 
	C459.331177,452.615204 468.464844,456.041077 471.871429,462.030212 
	C475.967468,469.231476 474.707642,477.823700 468.170349,484.620819 
	C473.906464,488.788757 476.780792,494.386932 475.573181,502.007751 
M446.197479,497.756531 
	C446.571991,500.932953 445.231171,504.336792 447.250854,507.351471 
	C451.871094,505.485046 452.051636,505.033844 451.706024,497.214172 
	C451.599518,494.804108 451.420959,491.904572 448.518768,491.841034 
	C445.167450,491.767670 446.789154,495.059204 446.197479,497.756531 
M451.662720,470.934998 
	C451.467133,468.732452 450.475189,466.680756 448.175110,466.902191 
	C445.292725,467.179657 446.143066,470.007996 446.269928,471.736267 
	C446.442108,474.082123 444.585052,478.124115 448.332642,478.306580 
	C452.061707,478.488159 451.318726,474.362274 451.662720,470.934998 
z"/>
<path fill="#000000" opacity="1.000000" stroke="none" 
	d="
M318.035797,456.049316 
	C319.006287,453.893707 320.662231,453.406372 322.341705,453.466736 
	C328.122437,453.674561 333.947327,453.021759 340.072784,454.119537 
	C339.820160,456.812225 339.316101,458.760406 336.122742,458.706268 
	C334.309906,458.675507 332.869751,459.500122 332.380035,461.384766 
	C331.976715,462.936951 332.818665,463.968933 334.138550,464.579468 
	C336.626434,465.730194 336.004913,467.614929 334.978638,469.157501 
	C328.384186,479.068756 329.117218,488.802216 334.487274,499.093475 
	C337.749634,505.345551 339.648651,512.309021 342.428925,519.664001 
	C334.187256,520.910522 326.634094,520.509399 319.123108,519.997803 
	C317.092834,519.859619 316.874084,517.349060 316.319916,515.631653 
	C314.875732,511.155884 313.889038,506.500732 311.109833,501.252747 
	C309.571625,506.860168 310.643219,511.315765 310.410645,515.699829 
	C310.148407,520.642700 309.250092,521.364563 304.681244,519.402893 
	C302.953949,518.661316 301.996094,519.379333 300.588928,519.870178 
	C290.193420,523.496155 285.548492,520.246216 286.019073,509.614532 
	C286.748291,493.140076 286.509583,476.671417 286.129944,460.195953 
	C285.979614,453.671234 286.283051,453.567688 292.817963,453.616211 
	C296.979218,453.647125 301.162476,453.746613 305.297577,453.381653 
	C309.138062,453.042694 310.430420,454.591858 310.284698,458.212311 
	C310.133301,461.973419 310.250946,465.745392 310.909973,469.669861 
	C314.821075,465.950165 315.518097,460.737793 318.035797,456.049316 
z"/>
<path fill="#000000" opacity="1.000000" stroke="none" 
	d="
M466.677979,606.427063 
	C466.672791,601.492676 466.602112,596.992920 466.745728,592.500000 
	C466.813873,590.367432 465.748474,587.081238 469.221466,586.982300 
	C472.904785,586.877380 477.407501,584.735046 480.018738,589.477478 
	C481.287323,591.781494 482.335052,594.207092 483.497925,596.608826 
	C485.593353,595.859497 484.909943,594.288513 485.001068,593.166199 
	C485.462311,587.485901 490.849915,584.456055 496.095276,587.005432 
	C497.984039,587.923340 497.792938,589.619141 497.806366,591.300354 
	C497.886017,601.260681 498.180115,611.223328 498.033905,621.179871 
	C497.948090,627.023193 500.569763,632.140259 501.599091,637.664612 
	C501.952118,639.559326 503.209839,641.322021 502.009277,644.577026 
	C494.140198,635.826111 484.161194,629.820679 480.280273,617.504639 
	C480.395477,624.846802 478.132538,628.901794 470.594910,627.335754 
	C468.944702,626.992798 467.361298,627.122314 466.778107,624.960205 
	C465.493134,620.196228 466.898102,613.110046 469.811432,610.910706 
	C469.017426,609.383484 466.405640,609.196716 466.677979,606.427063 
z"/>
<path fill="#000000" opacity="1.000000" stroke="none" 
	d="
M387.786072,586.640015 
	C391.548431,586.276550 392.919006,587.789978 393.520142,591.041138 
	C395.481537,601.649170 397.699982,612.210815 399.928070,622.767456 
	C400.608276,625.990173 399.439117,627.660400 396.257782,627.696777 
	C393.278229,627.730896 390.295258,627.426208 387.313019,627.287231 
	C385.554413,627.205261 385.277405,625.874634 384.944336,624.561951 
	C384.637146,623.351013 384.961395,621.763550 382.592773,621.323914 
	C378.587341,631.691345 368.290619,636.166870 360.791840,645.251282 
	C360.128021,639.825806 361.860321,636.507385 362.875641,633.157471 
	C366.745880,620.388245 368.305756,607.171448 370.665833,594.118103 
	C372.001129,586.732666 371.652649,586.664551 379.332916,586.626526 
	C381.993530,586.613342 384.654236,586.632812 387.786072,586.640015 
z"/>
<path fill="#000000" opacity="1.000000" stroke="none" 
	d="
M439.429840,607.547119 
	C439.398834,611.655823 439.367706,615.313904 439.330780,618.971924 
	C439.285187,623.489441 436.857666,626.010376 432.595825,626.983276 
	C424.833099,628.755371 417.018829,627.252930 409.230072,627.308655 
	C406.903961,627.325317 406.811340,625.387817 406.811371,623.692200 
	C406.811462,612.715088 406.843414,601.738037 406.878418,590.760925 
	C406.885620,588.498291 407.649353,586.792664 410.280945,586.831299 
	C417.080139,586.931030 423.922211,586.002075 430.665283,587.505249 
	C437.513214,589.031677 439.232880,591.168762 439.362305,598.115173 
	C439.418091,601.108276 439.407562,604.102661 439.429840,607.547119 
M424.756500,604.639893 
	C424.461273,602.056030 425.586426,599.158325 423.264954,596.669128 
	C421.025665,601.484619 421.002625,614.870239 423.193604,618.265076 
	C425.872070,614.190430 424.171021,609.727417 424.756500,604.639893 
z"/>
<path fill="#000000" opacity="1.000000" stroke="none" 
	d="
M356.408905,589.439941 
	C360.601044,594.031555 360.988159,598.898499 358.661377,604.027893 
	C358.017853,605.446472 357.294708,606.587952 358.212372,608.169312 
	C361.074280,613.100830 359.884491,618.545044 360.029633,623.811340 
	C360.111969,626.799438 358.456543,627.791260 355.596039,627.806335 
	C345.748627,627.858276 345.748932,627.918701 345.750153,617.768433 
	C345.750671,613.469238 345.750671,613.469238 343.948334,610.690247 
	C342.529541,614.498108 343.275970,618.131714 343.487122,621.610840 
	C343.781433,626.459778 341.806091,628.352356 337.120239,627.913635 
	C335.467957,627.758911 333.793610,627.852966 332.130524,627.797485 
	C329.700806,627.716431 328.602173,626.531677 328.618866,624.009460 
	C328.692688,612.857300 328.662903,601.704407 328.676422,590.551819 
	C328.678528,588.809692 328.845825,586.869080 331.079102,586.906860 
	C339.470184,587.049011 348.067200,585.142883 356.408905,589.439941 
z"/>
<path fill="#000000" opacity="1.000000" stroke="none" 
	d="
M506.994080,592.339111 
	C513.232605,586.064941 524.557373,584.791016 531.623901,589.190125 
	C534.032349,590.689453 535.440369,592.902222 536.275391,595.461060 
	C538.041809,600.874451 536.117126,603.314453 530.405640,602.987244 
	C528.101074,602.855164 525.808777,602.507629 523.781433,602.287415 
	C521.694153,600.585205 523.712952,597.641235 521.091064,596.174133 
	C519.005066,598.378479 519.215759,601.007629 520.130981,603.466431 
	C521.198669,606.335083 523.892029,604.912292 525.815063,604.889771 
	C537.599365,604.751770 537.598633,604.687195 536.801392,616.719421 
	C536.790466,616.885376 536.764099,617.050293 536.753540,617.216248 
	C536.164673,626.520264 536.168091,626.444397 526.612915,626.023682 
	C524.158691,625.915710 521.936096,627.419006 519.382935,627.569580 
	C510.900330,628.070068 505.385284,623.754395 505.059418,615.375305 
	C504.763977,607.777710 504.068878,600.072205 506.994080,592.339111 
M519.404663,615.343994 
	C519.646118,616.697815 519.347229,618.345642 521.465698,618.889099 
	C523.402771,617.045349 523.398315,614.654541 521.877380,612.990356 
	C520.689636,611.690857 519.721863,613.280945 519.404663,615.343994 
z"/>
<path fill="#000000" opacity="1.000000" stroke="none" 
	d="
M632.559326,607.432373 
	C632.573914,604.213684 632.574036,601.387634 632.657654,598.564087 
	C632.836426,592.521301 635.211914,589.467224 641.064453,587.828369 
	C646.134888,586.408447 651.229858,586.113708 656.247986,588.038330 
	C662.218445,590.328308 665.361023,596.310303 664.045105,602.507935 
	C663.681641,604.219910 662.860779,605.205994 661.089478,605.262756 
	C659.760864,605.305359 658.412170,605.155151 657.104126,605.329224 
	C652.014648,606.006653 649.055786,604.427063 649.658264,598.708679 
	C649.764282,597.703186 649.433167,596.728394 648.429565,596.171387 
	C646.168091,598.707825 645.783875,614.554382 647.899353,618.395325 
	C649.805969,618.289673 649.977356,616.772522 649.807556,615.521423 
	C649.161377,610.761536 651.829224,609.536865 655.723267,610.061829 
	C658.733398,610.467712 663.233276,607.761292 664.121155,613.396729 
	C665.012146,619.051941 662.015991,622.595215 657.358765,624.748230 
	C653.687500,626.445496 650.320740,627.589600 646.310242,627.427063 
	C636.326294,627.022766 632.832214,623.645935 632.615967,613.803162 
	C632.572205,611.811584 632.592102,609.818604 632.559326,607.432373 
z"/>
<path fill="#000000" opacity="1.000000" stroke="none" 
	d="
M578.994568,586.650879 
	C580.482117,586.652771 581.481140,586.693542 582.476929,586.652832 
	C594.768005,586.150024 598.850586,590.052612 596.403625,605.212097 
	C595.597534,610.205933 591.239990,611.189270 587.231445,611.159363 
	C582.163513,611.121643 580.814026,613.518066 581.240295,617.918457 
	C581.256287,618.083191 581.243530,618.250793 581.242615,618.417053 
	C581.183838,628.603027 581.187500,628.460144 571.085144,628.201660 
	C567.072693,628.098999 565.950562,626.314636 566.005066,622.649048 
	C566.153320,612.675964 566.286072,602.695312 566.044189,592.726929 
	C565.925537,587.831848 567.842773,586.094177 572.523926,586.635986 
	C574.491760,586.863831 576.509521,586.659668 578.994568,586.650879 
M582.858459,601.938293 
	C584.931213,599.822144 585.031311,597.850098 582.336670,595.543274 
	C581.238098,598.036621 580.231140,600.002380 582.858459,601.938293 
z"/>
<path fill="#000000" opacity="1.000000" stroke="none" 
	d="
M293.170837,595.967407 
	C290.055939,593.922302 290.468262,591.076233 291.160187,588.598267 
	C291.945312,585.786499 294.732208,586.773315 296.742615,586.737549 
	C303.392548,586.619263 310.049988,586.805237 316.695282,586.589600 
	C320.106873,586.478821 321.572235,587.890747 321.763763,591.127502 
	C321.932709,593.983032 321.265961,596.149048 317.884064,596.222351 
	C314.444366,596.296936 313.811310,598.776733 313.738159,601.350464 
	C313.535400,608.482178 313.308105,615.627808 313.555328,622.751831 
	C313.698242,626.870667 312.198151,627.918640 308.322205,627.703491 
	C298.742950,627.171814 298.729340,627.310852 298.697021,617.615540 
	C298.679291,612.295410 298.556427,606.971069 298.724609,601.656372 
	C298.843109,597.912903 297.399750,595.994141 293.170837,595.967407 
z"/>
<path fill="#000000" opacity="1.000000" stroke="none" 
	d="
M606.417114,628.038696 
	C603.067383,627.594604 602.753967,625.459290 602.835449,623.185425 
	C603.184814,613.431885 602.114502,603.641724 603.608398,593.911865 
	C603.746643,593.011780 603.208557,592.020386 603.052490,591.060303 
	C602.625671,588.433899 603.539124,586.841919 606.418701,586.830078 
	C606.584656,586.829407 606.751099,586.822754 606.916565,586.809814 
	C617.761230,585.962341 618.060425,586.241455 618.081116,597.209045 
	C618.091431,602.674683 618.162292,608.140991 618.091064,613.605591 
	C618.054688,616.396545 619.005798,618.074402 622.034607,618.087646 
	C626.118835,618.105530 626.212769,620.893738 626.209167,623.939636 
	C626.205078,627.377808 624.132263,628.098511 621.326965,628.096436 
	C616.509766,628.092834 611.692566,628.088501 606.417114,628.038696 
z"/>
<path fill="#000000" opacity="1.000000" stroke="none" 
	d="
M567.551453,480.828796 
	C564.265869,480.982391 561.954163,482.577698 559.059753,484.706177 
	C557.546814,475.109955 556.117859,466.182159 554.744202,457.245880 
	C554.364502,454.775604 555.594238,453.437988 558.043518,453.381714 
	C563.345032,453.259918 568.675659,452.858582 573.943848,453.250580 
	C579.818054,453.687714 578.053772,458.786865 578.258789,462.196106 
	C578.380615,464.222870 577.936646,466.062012 578.753723,468.257202 
	C580.147156,472.001221 579.601562,475.541901 574.585632,476.531311 
	C571.874451,477.066071 570.253967,479.505157 567.551453,480.828796 
z"/>
<path fill="#000000" opacity="1.000000" stroke="none" 
	d="
M460.590637,608.139526 
	C460.778931,613.527161 460.878204,618.515198 461.015045,623.502197 
	C461.099243,626.572083 459.739685,627.942505 456.580017,628.177917 
	C445.806274,628.980408 445.711731,628.958801 445.725647,618.174255 
	C445.737061,609.348938 445.820099,600.521729 445.658203,591.699219 
	C445.590729,588.021057 447.045532,586.466675 450.664825,586.730286 
	C452.653229,586.875061 454.700592,586.632874 456.631165,587.017761 
	C458.234436,587.337341 460.542725,587.036316 460.763947,589.718079 
	C460.954620,592.029419 459.737793,593.571350 457.937561,594.618042 
	C455.103607,596.265625 452.160034,597.724670 449.074921,599.363342 
	C450.329620,601.515137 452.119934,600.811523 453.607452,600.803955 
	C460.227966,600.770386 460.816040,601.330627 460.590637,608.139526 
z"/>
</svg>